<svg width="596" height="515" viewBox="0 0 596 515" fill="none" xmlns="http://www.w3.org/2000/svg">
<path fill-rule="evenodd" clip-rule="evenodd" d="M162.429 0H216.572C231.529 0 243.643 12.1111 243.643 27.0638V419.489C243.643 434.442 231.529 446.553 216.572 446.553H162.429C147.472 446.553 135.357 434.442 135.357 419.489V27.0638C135.357 12.1111 147.472 0 162.429 0Z" fill="#5199FC"/>
<path fill-rule="evenodd" clip-rule="evenodd" d="M203.036 94.7234H175.965C168.493 94.7234 162.429 88.6611 162.429 81.1915C162.429 73.7219 168.493 67.6595 175.965 67.6595H203.036C210.508 67.6595 216.572 73.7219 216.572 81.1915C216.572 88.6611 210.508 94.7234 203.036 94.7234ZM175.965 108.255H203.036C210.508 108.255 216.572 114.318 216.572 121.787C216.572 129.257 210.508 135.319 203.036 135.319H175.965C168.493 135.319 162.429 129.257 162.429 121.787C162.429 114.318 168.493 108.255 175.965 108.255Z" fill="#AFD7FB"/>
<path fill-rule="evenodd" clip-rule="evenodd" d="M270.714 67.6594H351.928C366.885 67.6594 379 79.7705 379 94.7233V419.489C379 434.442 366.885 446.553 351.928 446.553H270.714C255.757 446.553 243.643 434.442 243.643 419.489V94.7233C243.643 79.7705 255.757 67.6594 270.714 67.6594Z" fill="#FF9868"/>
<path fill-rule="evenodd" clip-rule="evenodd" d="M311.321 121.787C326.278 121.787 338.393 133.898 338.393 148.851C338.393 163.804 326.278 175.915 311.321 175.915C296.364 175.915 284.25 163.804 284.25 148.851C284.25 133.898 296.364 121.787 311.321 121.787Z" fill="#D06061"/>
<path fill-rule="evenodd" clip-rule="evenodd" d="M406.071 40.5957H433.143C448.1 40.5957 460.214 52.2331 460.214 66.577V417.135C460.214 431.479 448.1 443.116 433.143 443.116H406.071C391.114 443.116 379 431.479 379 417.135V66.577C379 52.2331 391.114 40.5957 406.071 40.5957Z" fill="#FF5068"/>
<path fill-rule="evenodd" clip-rule="evenodd" d="M419.607 81.1914C427.079 81.1914 433.143 87.2537 433.143 94.7233V121.787C433.143 129.257 427.079 135.319 419.607 135.319C412.136 135.319 406.072 129.257 406.072 121.787V94.7233C406.072 87.2537 412.136 81.1914 419.607 81.1914Z" fill="#D93368"/>
<path fill-rule="evenodd" clip-rule="evenodd" d="M27.0714 419.489H568.5C583.457 419.489 595.571 431.6 595.571 446.553C595.571 461.506 583.457 473.617 568.5 473.617H27.0714C12.1145 473.617 0 461.506 0 446.553C0 431.6 12.1145 419.489 27.0714 419.489Z" fill="#AE8280"/>
<path fill-rule="evenodd" clip-rule="evenodd" d="M439.91 514.213C428.703 514.213 419.607 505.119 419.607 493.915V473.617H460.214V493.915C460.214 505.119 451.118 514.213 439.91 514.213ZM155.661 514.213C144.453 514.213 135.357 505.119 135.357 493.915V473.617H175.964V493.915C175.964 505.119 166.868 514.213 155.661 514.213Z" fill="#855F6D"/>
</svg>
